<svg xmlns="http://www.w3.org/2000/svg" width="13.478" height="19.411" viewBox="101.461 60.618 13.478 19.411">
    <path d="M106.472 61.653999999999996c.029-.028.432-.028 1.67-.028h4.205l.086.086c.144.086.23.23.23.346 0 .172-.086.288-.2.403-.03.086-.289.317-.462.576l-1.526 1.757-1.958 2.217-1.037 1.181-1.555 1.786-2.045 2.332c-.346.432-.72.778-.72.778 0 .058.26.058 2.65.058h2.62v-1.872c0-1.901 0-1.93.029-1.959.058-.086.317-.403 1.325-1.584l.403-.432.403-.432.605-.777.634-.663.316-.403c.116-.173.288-.202.432-.202a.46.46 0 0 1 .404.23c.028.087.028.145.028 2.276v5.818h.72c.663 0 .692 0 .778.028.23.087.346.317.346.576 0 .144-.03.317-.144.432-.173.144-.202.144-.98.144h-.72v.49c.03 1.469.317 2.045 1.44 2.65.404.201.49.259.49.547 0 .201-.058.288-.202.403l-.086.029h-7.862l-.087-.029c-.173-.115-.201-.202-.201-.403 0-.288.028-.346.46-.547 1.124-.605 1.412-1.181 1.412-2.65v-.49h-3.312c-.605.058-1.095.058-1.498.058-1.814 0-1.843-.058-1.872-.058-.173-.057-.23-.23-.23-.432 0-.201 0-.201.576-.864 2.419-2.937 4.118-7.2 4.118-10.598 0-.518.086-.691.317-.778M108.2 80.03h.029-.087.058m0-19.411h.029-.087.058" style="-webkit-tap-highlight-color:transparent;font:10pt Arial"/>
</svg>
